<svg xmlns="http://www.w3.org/2000/svg" xml:space="preserve" viewBox="0 0 80 40">
  <path fill="#2196F3" d="M0 0h80v20H0z" />
  <path fill="#FFF"
    d="M0 20h80v20H0V20zM21.1 6.2l2.3 6 2.3-6h1.8V14H26v-2.6l.1-3.4-2.3 6h-1l-2.3-6 .1 3.4V14h-1.4V6.2h1.9zm13.6 6h-3L31 14h-1.4l3-7.8h1.2l3 7.8h-1.4l-.7-1.8zM32 11.1h2.3l-1.1-3.2-1.2 3.2zm11.9-3.8h-2.4V14h-1.3V7.3h-2.4V6.2H44v1.1zm8.1 4.2c-.1.8-.4 1.5-.9 2s-1.3.7-2.1.7a2.73 2.73 0 0 1-2.7-1.7c-.3-.5-.4-1.2-.4-1.9v-.8c0-.7.1-1.4.4-1.9.3-.6.6-1 1.1-1.3.5-.3 1.1-.5 1.7-.5.9 0 1.6.2 2.1.7.5.5.8 1.1.9 2h-1.4c-.1-.6-.2-1-.5-1.2-.3-.3-.6-.4-1.2-.4s-1 .2-1.4.6c-.3.4-.5 1.1-.5 1.9v.7c0 .8.2 1.5.5 1.9.3.4.7.7 1.3.7.5 0 .9-.1 1.2-.4.3-.2.4-.6.5-1.2H52zm8.7 2.5h-1.4v-3.5h-3.5V14h-1.4V6.2h1.4v3.3h3.5V6.2h1.4V14z" />
  <path fill="#2196F3"
    d="m21.1 26.2 2.3 6 2.3-6h1.8V34H26v-2.6l.1-3.4-2.3 6h-1l-2.3-6 .1 3.4V34h-1.4v-7.8h1.9zm13.6 6h-3L31 34h-1.4l3-7.8h1.2l3 7.8h-1.4l-.7-1.8zM32 31.1h2.3l-1.1-3.2-1.2 3.2zm11.9-3.8h-2.4V34h-1.3v-6.7h-2.4v-1.1H44v1.1zm8.1 4.2c-.1.8-.4 1.5-.9 2s-1.3.7-2.1.7a2.73 2.73 0 0 1-2.7-1.7c-.3-.5-.4-1.2-.4-1.9v-.7c0-.7.1-1.4.4-1.9.3-.6.6-1 1.1-1.3.5-.3 1.1-.5 1.7-.5.9 0 1.6.2 2.1.7.5.5.8 1.1.9 2h-1.4c-.1-.6-.2-1-.5-1.2-.3-.3-.6-.4-1.2-.4s-1 .2-1.4.6c-.3.4-.5 1.1-.5 1.9v.7c0 .8.2 1.5.5 1.9.3.4.7.7 1.3.7.5 0 .9-.1 1.2-.4.3-.2.4-.6.5-1.2H52zm8.7 2.5h-1.4v-3.5h-3.5V34h-1.4v-7.8h1.4v3.3h3.5v-3.3h1.4V34z" />
</svg>