<svg xmlns="http://www.w3.org/2000/svg" xml:space="preserve" viewBox="0 0 20 20">
  <path fill="#FFF" fill-opacity=".7" d="M10 0C4.5 0 0 4.5 0 10s4.5 10 10 10 10-4.5 10-10S15.5 0 10 0zm4.2 16L10 13.4 5.8 16l1.1-4.8L3.2 8l4.9-.4L10 3l1.9 4.5 4.9.4-3.7 3.2 1.1 4.9z"/>
  <circle cx="10" cy="10" r="10" fill="#FFF"/>
  <path fill="#2F80ED" fill-rule="evenodd" d="M14.7 10.6V9.4l1.4-1.1c.1-.1.2-.3.1-.4l-1.3-2.2c-.1-.1-.2-.2-.4-.1l-1.6.6c-.3-.3-.7-.5-1.1-.6l-.2-1.7c0-.2-.2-.3-.3-.3H8.7c-.2 0-.3.1-.3.3l-.2 1.7c-.4.1-.8.3-1.1.6l-1.6-.6c-.1-.1-.3 0-.4.1L3.8 7.9c-.1.1 0 .3.1.4l1.4 1.1c0 .2-.1.4-.1.6v.6l-1.4 1.1c-.1.1-.2.3-.1.4L5 14.3c.1.1.2.2.4.1l1.6-.6c.3.3.7.5 1.1.6l.2 1.7c0 .2.2.3.3.3h2.6c.2 0 .3-.1.3-.3l.2-1.7c.4-.2.8-.4 1.1-.6l1.6.6c.1.1.3 0 .4-.1l1.3-2.2c.1-.1 0-.3-.1-.4l-1.3-1.1zM10 12.4c-1.3 0-2.4-1.1-2.4-2.4 0-1.3 1.1-2.4 2.4-2.4 1.3 0 2.4 1.1 2.4 2.4 0 1.3-1.1 2.4-2.4 2.4z" clip-rule="evenodd"/>
</svg>
